# xmcd
#
# Track frame offsets:
#  150
#  13965
#  25194
#  40157
#  53966
#  67536
#  80252
#  93577
#  105350
#  117110
#  130047
#  146307
#  158404
#
# Disc length: 2273 seconds
#
# Revision: 0
# Processed by: cddbd v1.5.1PL2 Copyright (c) Steve Scherf et al.
# Submitted via: Collectorz.com_Music_Collector 6.9
#
DISCID=9208df0d
DTITLE=Janie Fricke - The Bluegrass Sessions
DYEAR=2004
DGENRE=
TTITLE0=01. You Don - t Know Love
TTITLE1=02 - Goodbye Broken Heart
TTITLE2=03 - Do Me With Love
TTITLE3=04 - Faithless Love
TTITLE4=05. He - s A Heartache
TTITLE5=06. Please Help Me I'm Falling (In Love With You - 06. Please Help Me I'm Falling (In Love With You)
TTITLE6=07. She - s Single Again
TTITLE7=08. I'll Need Someone To Hold Me (When I Cry - 08. I'll Need Someone To Hold Me (When I Cry)
TTITLE8=09 - Down To My Last Broken Heart
TTITLE9=10 - Tell Me A Lie
TTITLE10=11. It Ain - t Easy Bein' Easy
TTITLE11=12. Don - t Worry 'Bout Me Baby
TTITLE12=13 - Ring Of Fire
EXTD=
EXTT0=
EXTT1=
EXTT2=
EXTT3=
EXTT4=
EXTT5=
EXTT6=
EXTT7=
EXTT8=
EXTT9=
EXTT10=
EXTT11=
EXTT12=
PLAYORDER=
